<svg width="100%" height="100%" viewBox="0 0 24 24" fill="none" xmlns="http://www.w3.org/2000/svg">
<g clip-path="url(#clip0_5_420)">
<path d="M12 24C18.6274 24 24 18.6274 24 12C24 5.37258 18.6274 0 12 0C5.37258 0 0 5.37258 0 12C0 18.6274 5.37258 24 12 24Z" fill="#060606"/>
<path fill-rule="evenodd" clip-rule="evenodd" d="M12 6C13.7442 6.02317 15.4419 6.81083 16.5582 8.15446C17.4651 9.22006 17.9767 10.61 18 12C17.7726 11.9897 17.5452 11.9817 17.3178 11.9737C16.522 11.9457 15.7261 11.9176 14.9302 11.7915C14.2093 11.6757 13.5116 11.3745 13.0233 10.8186C12.5116 10.2857 12.2791 9.56755 12.186 8.8494C12.0465 7.8996 12.0233 6.9498 12 6ZM6 12C6.04634 10.0541 7.04248 8.17758 8.61775 7.08882C9.59072 6.39383 10.7954 6.02317 12 6C11.9913 6.21808 11.985 6.43698 11.9788 6.65626C11.9517 7.60154 11.9245 8.55351 11.6988 9.47492C11.4904 10.2857 10.9575 11.027 10.193 11.4209C9.47492 11.7915 8.66409 11.861 7.85326 11.9305C7.22778 11.9768 6.62548 12 6 12ZM6 12C6.21065 12.0094 6.42226 12.0169 6.63443 12.0244C7.47217 12.0541 8.31882 12.0841 9.1506 12.2326C9.84554 12.3721 10.5174 12.6744 11.0039 13.2093C11.5598 13.8372 11.7684 14.6744 11.861 15.4884C11.9537 16.3256 11.9768 17.1628 12 18C12.0084 17.8019 12.0153 17.6038 12.0222 17.4058C12.0534 16.5115 12.0845 15.6201 12.2558 14.7442C12.3954 14 12.7907 13.3023 13.3954 12.8372C13.9535 12.4186 14.6744 12.2558 15.3488 12.1628C16.0116 12.093 16.6744 12.0625 17.3372 12.032C17.5581 12.0218 17.7791 12.0116 18 12C17.9767 13.6977 17.2093 15.3954 15.907 16.5116C14.8372 17.4651 13.4186 17.9767 12 18C10.3089 17.9767 8.61775 17.2093 7.50577 15.907C6.55597 14.8605 6.02317 13.4418 6 12Z" fill="#FEFEFE"/>
</g>
<defs>
<clipPath id="clip0_5_420">
<rect width="100%" height="100%" fill="white"/>
</clipPath>
</defs>
</svg>
