<svg width="100%" height="100%" viewBox="0 0 24 24" fill="none" xmlns="http://www.w3.org/2000/svg">
<g clip-path="url(#clip0_5_397)">
<path d="M12 24C18.6274 24 24 18.6274 24 12C24 5.37258 18.6274 0 12 0C5.37258 0 0 5.37258 0 12C0 18.6274 5.37258 24 12 24Z" fill="#060606"/>
<path fill-rule="evenodd" clip-rule="evenodd" d="M9.49219 18H14.5104C16.4302 18 18.0025 16.4703 18 14.6001V9.39748C18 7.52972 16.4276 6 14.5078 6H9.4896C7.56979 6 5.99742 7.52972 6 9.39748V14.6026C6 16.4703 7.57237 18 9.49219 18ZM15.7819 8.86154C15.851 8.48548 15.605 8.11085 15.2325 8.02477C14.86 7.93874 14.502 8.1738 14.4328 8.54986C14.3637 8.92592 14.6097 9.30055 14.9822 9.38658C15.3548 9.47266 15.7128 9.2376 15.7819 8.86154ZM15.2308 12C15.2308 13.784 13.784 15.2308 12 15.2308C10.216 15.2308 8.76923 13.784 8.76923 12C8.76923 10.216 10.216 8.76923 12 8.76923C13.784 8.76923 15.2308 10.216 15.2308 12ZM11.9824 9.88643C10.8149 9.88643 9.86626 10.835 9.86626 12.0025C9.86626 13.17 10.8149 14.1186 11.9824 14.1186C13.1499 14.1186 14.0985 13.17 14.0985 12.0025C14.0985 10.8325 13.1524 9.88643 11.9824 9.88643Z" fill="#FEFEFE"/>
</g>
<defs>
<clipPath id="clip0_5_397">
<rect width="100%" height="100%" fill="white"/>
</clipPath>
</defs>
</svg>
