<svg width="100%" height="100%" viewBox="0 0 24 24" fill="none" xmlns="http://www.w3.org/2000/svg">
<g clip-path="url(#clip0_5_423)">
<path d="M12 24C18.6274 24 24 18.6274 24 12C24 5.37258 18.6274 0 12 0C5.37258 0 0 5.37258 0 12C0 18.6274 5.37258 24 12 24Z" fill="#060606"/>
<path fill-rule="evenodd" clip-rule="evenodd" d="M18 8.87418L18 10.9281C16.8771 10.9281 15.8375 10.5888 14.9885 10.0122V14.2036C14.9885 16.3003 13.2002 18 10.9943 18C10.1713 18 9.40627 17.7635 8.77076 17.3579L8.77033 17.3575C7.70261 16.676 7 15.5178 7 14.2036C7 12.107 8.78831 10.4073 10.9944 10.4073C11.1778 10.4072 11.3609 10.419 11.5425 10.4426L11.5424 12.5424C11.3676 12.4897 11.1812 12.4611 10.9879 12.4611C9.97875 12.4611 9.16083 13.2386 9.16083 14.1976C9.16083 14.8758 9.56965 15.4629 10.1658 15.7489C10.4131 15.8675 10.6922 15.9342 10.9879 15.9342C11.995 15.9342 12.8115 15.1598 12.815 14.2036V6H14.9886C14.9886 6.16957 14.9908 6.33249 15.0217 6.49998C15.1725 7.31783 15.687 8.0166 16.4011 8.44011C16.8807 8.7246 17.4348 8.87502 18 8.87418Z" fill="#FEFEFE"/>
</g>
<defs>
<clipPath id="clip0_5_423">
<rect width="100%" height="100%" fill="white"/>
</clipPath>
</defs>
</svg>
