<svg width="100%" height="100%" viewBox="0 0 24 24" fill="none" xmlns="http://www.w3.org/2000/svg">
<g clip-path="url(#clip0_5_391)">
<path d="M12 24C18.6274 24 24 18.6274 24 12C24 5.37258 18.6274 0 12 0C5.37258 0 0 5.37258 0 12C0 18.6274 5.37258 24 12 24Z" fill="#060606"/>
<path fill-rule="evenodd" clip-rule="evenodd" d="M14.3139 6.45044C15.0394 6.74979 15.698 7.1895 16.2516 7.74404C16.8079 8.29539 17.2489 8.951 17.549 9.67304C17.8491 10.3951 18.0024 11.1692 18 11.9505C17.999 15.2295 15.3181 17.897 12.0253 17.897H12.0228C11.0251 17.897 10.0433 17.6481 9.16717 17.173L6 18L6.84757 14.9185C6.32455 14.017 6.04975 12.994 6.05026 11.946C6.05123 8.66753 8.73208 6.00002 12.0249 6.00002C12.8103 5.99799 13.5883 6.15108 14.3139 6.45044ZM13.4561 12.6959C13.5912 12.7453 14.3171 13.1 14.4651 13.1736C14.4937 13.1878 14.5205 13.2007 14.5453 13.2126C14.6487 13.2622 14.7182 13.2956 14.7478 13.345C14.7846 13.4062 14.7846 13.7001 14.6619 14.0429C14.5386 14.3858 13.9485 14.6989 13.6653 14.7409C13.4109 14.7789 13.089 14.7948 12.7352 14.6826C12.5211 14.6155 12.2464 14.5251 11.8937 14.3739C10.512 13.7808 9.57794 12.4505 9.39872 12.1952C9.3858 12.1769 9.37685 12.1641 9.37186 12.1575L9.37066 12.1559C9.29229 12.0519 8.76923 11.3574 8.76923 10.6391C8.76923 9.96145 9.10426 9.60694 9.25781 9.44444C9.26806 9.43364 9.27748 9.42367 9.28592 9.41453C9.42106 9.26734 9.58103 9.23079 9.67938 9.23079C9.77774 9.23079 9.87614 9.23176 9.96258 9.23573C9.97334 9.23633 9.98451 9.23628 9.99609 9.23624C10.0819 9.23601 10.1889 9.23564 10.2944 9.48764C10.3373 9.58987 10.401 9.74397 10.4673 9.90459C10.5917 10.2057 10.7256 10.5298 10.7495 10.5778C10.7868 10.6514 10.8116 10.7369 10.7619 10.8347C10.7545 10.8495 10.7477 10.8635 10.7411 10.8769C10.7043 10.9521 10.6772 11.0072 10.6144 11.0802C10.5889 11.1096 10.5626 11.1414 10.5364 11.1731C10.4863 11.2336 10.4365 11.2939 10.3928 11.337C10.3188 11.4101 10.2423 11.4897 10.3282 11.6364C10.4142 11.7836 10.7107 12.2642 11.1494 12.6534C11.6192 13.0699 12.028 13.2467 12.2366 13.337C12.2784 13.3551 12.3122 13.3697 12.3368 13.3821C12.4844 13.4552 12.5703 13.4433 12.6568 13.345C12.7427 13.2472 13.0254 12.9162 13.1238 12.77C13.2226 12.6228 13.321 12.647 13.4561 12.6959Z" fill="#FEFEFE"/>
</g>
<defs>
<clipPath id="clip0_5_391">
<rect width="100%" height="100%" fill="white"/>
</clipPath>
</defs>
</svg>
