<svg width="100%" height="100%" viewBox="0 0 24 24" fill="none" xmlns="http://www.w3.org/2000/svg">
<g clip-path="url(#clip0_5_414)">
<path d="M12 24C18.6274 24 24 18.6274 24 12C24 5.37258 18.6274 0 12 0C5.37258 0 0 5.37258 0 12C0 18.6274 5.37258 24 12 24Z" fill="#060606"/>
<path fill-rule="evenodd" clip-rule="evenodd" d="M16.6951 8.24471C17.2091 8.37652 17.6144 8.76231 17.7527 9.25181C18.0098 10.1458 17.9999 12.0094 17.9999 12.0094C17.9999 12.0094 17.9999 13.8635 17.7528 14.7576C17.6144 15.247 17.2092 15.6329 16.6951 15.7646C15.7561 16 12 16 12 16C12 16 8.25365 16 7.30481 15.7553C6.79075 15.6235 6.38552 15.2376 6.24711 14.7482C6 13.8635 6 12 6 12C6 12 6 10.1458 6.24711 9.25181C6.38543 8.7624 6.80063 8.36711 7.30472 8.23539C8.24377 8 11.9999 8 11.9999 8C11.9999 8 15.7561 8 16.6951 8.24471ZM13.8462 12L10.6154 13.6471V10.3529L13.8462 12Z" fill="#FEFEFE"/>
</g>
<defs>
<clipPath id="clip0_5_414">
<rect width="100%" height="100%" fill="white"/>
</clipPath>
</defs>
</svg>
