<svg width="100%" height="100%" viewBox="0 0 24 24" fill="none" xmlns="http://www.w3.org/2000/svg">
  <path
    d="M5 3.44444C5 2.79614 5.22827 2.17438 5.6346 1.71596C6.04093 1.25754 6.59203 1 7.16667 1H15.8333C16.408 1 16.9591 1.25754 17.3654 1.71596C17.7717 2.17438 18 2.79614 18 3.44444V20.5556C18 21.2039 17.7717 21.8256 17.3654 22.284C16.9591 22.7425 16.408 23 15.8333 23H7.16667C6.59203 23 6.04093 22.7425 5.6346 22.284C5.22827 21.8256 5 21.2039 5 20.5556V3.44444ZM15.8333 3.44444H7.16667V20.5556H15.8333V3.44444Z"
    fill="#060606" />
  <path
    d="M12 17C12 17.2652 11.8946 17.5196 11.7071 17.7071C11.5196 17.8946 11.2652 18 11 18C10.7348 18 10.4804 17.8946 10.2929 17.7071C10.1054 17.5196 10 17.2652 10 17C10 16.7348 10.1054 16.4804 10.2929 16.2929C10.4804 16.1054 10.7348 16 11 16C11.2652 16 11.5196 16.1054 11.7071 16.2929C11.8946 16.4804 12 16.7348 12 17Z"
    fill="#060606" />
</svg>