<svg width="100%" height="100%" viewBox="0 0 24 24" fill="none" xmlns="http://www.w3.org/2000/svg">
  <path
    d="M4.11884 3.96857H8.5382L9.96243 7.52972L7.67401 9.05537C7.53925 9.14528 7.42876 9.26707 7.35236 9.40992C7.27595 9.55278 7.23599 9.71229 7.23601 9.87429C7.23897 9.96682 7.23601 9.87528 7.23601 9.87528V9.89595C7.2366 9.93996 7.23857 9.98395 7.24192 10.0278C7.24782 10.1086 7.25767 10.2178 7.27637 10.3527C7.31475 10.6184 7.38857 10.9846 7.53228 11.4157C7.82165 12.2819 8.38859 13.403 9.49293 14.5073C10.5973 15.6117 11.7184 16.1786 12.5835 16.468C13.0156 16.6117 13.3808 16.6846 13.6485 16.7239C13.7996 16.745 13.9517 16.7582 14.1042 16.7633L14.117 16.7643H14.1249C14.1249 16.7643 14.2351 16.7584 14.1259 16.7643C14.3086 16.7642 14.4877 16.7132 14.6431 16.6171C14.7985 16.521 14.9241 16.3835 15.0058 16.22L15.6653 14.901L20.0315 15.6294V19.8815C17.9537 20.1817 12.3414 20.478 7.93189 16.0684C3.52238 11.6588 3.81766 6.04542 4.11884 3.96857ZM9.2764 10.3527L11.055 9.16757C11.4307 8.91695 11.7088 8.54473 11.8427 8.11337C11.9766 7.682 11.958 7.21772 11.7902 6.7984L10.366 3.23725C10.2198 2.87198 9.96758 2.55889 9.64179 2.33836C9.316 2.11783 8.93161 1.99997 8.5382 2H4.06766C3.17296 2 2.33142 2.62108 2.18476 3.59159C1.85011 5.79836 1.39636 12.3163 6.54014 17.4602C11.6839 22.6041 18.2017 22.1493 20.4084 21.8157C21.3789 21.668 22 20.8274 22 19.9327V15.6294C22.0001 15.1634 21.8348 14.7125 21.5336 14.3569C21.2325 14.0013 20.8149 13.7641 20.3553 13.6874L15.9891 12.96C15.5738 12.8907 15.1473 12.9564 14.7721 13.1473C14.3969 13.3383 14.0928 13.6445 13.9044 14.0211L13.5639 14.7032C13.4434 14.6735 13.3242 14.6391 13.2066 14.5999C12.5963 14.3971 11.7489 13.9798 10.8847 13.1155C10.0205 12.2513 9.60317 11.4039 9.40041 10.7926C9.352 10.6481 9.31093 10.5013 9.27738 10.3527H9.2764Z"
    fill="#060606" />
</svg>