<svg width="100%" height="100%" viewBox="0 0 120 54" fill="none" xmlns="http://www.w3.org/2000/svg">
  <g filter="url(#filter0_d_5_550)">
    <path
      d="M4.2919 35V0.0909081H11.6726V28.9148H26.6385V35H4.2919ZM43.2195 35.5114C40.5717 35.5114 38.282 34.9489 36.3501 33.8239C34.4297 32.6875 32.9467 31.108 31.9013 29.0852C30.8558 27.0511 30.3331 24.6932 30.3331 22.0114C30.3331 19.3068 30.8558 16.9432 31.9013 14.9205C32.9467 12.8864 34.4297 11.3068 36.3501 10.1818C38.282 9.04545 40.5717 8.47727 43.2195 8.47727C45.8672 8.47727 48.1513 9.04545 50.0717 10.1818C52.0036 11.3068 53.4922 12.8864 54.5376 14.9205C55.5831 16.9432 56.1058 19.3068 56.1058 22.0114C56.1058 24.6932 55.5831 27.0511 54.5376 29.0852C53.4922 31.108 52.0036 32.6875 50.0717 33.8239C48.1513 34.9489 45.8672 35.5114 43.2195 35.5114ZM43.2536 29.8864C44.4581 29.8864 45.4638 29.5455 46.2706 28.8636C47.0774 28.1705 47.6854 27.2273 48.0945 26.0341C48.5149 24.8409 48.7251 23.483 48.7251 21.9602C48.7251 20.4375 48.5149 19.0795 48.0945 17.8864C47.6854 16.6932 47.0774 15.75 46.2706 15.0568C45.4638 14.3636 44.4581 14.017 43.2536 14.017C42.0376 14.017 41.0149 14.3636 40.1854 15.0568C39.3672 15.75 38.7479 16.6932 38.3274 17.8864C37.9183 19.0795 37.7138 20.4375 37.7138 21.9602C37.7138 23.483 37.9183 24.8409 38.3274 26.0341C38.7479 27.2273 39.3672 28.1705 40.1854 28.8636C41.0149 29.5455 42.0376 29.8864 43.2536 29.8864ZM72.6229 45.3636C70.2706 45.3636 68.2536 45.0398 66.5717 44.392C64.9013 43.7557 63.5717 42.8864 62.5831 41.7841C61.5945 40.6818 60.9524 39.4432 60.657 38.0682L67.3729 37.1648C67.5774 37.6875 67.9013 38.1761 68.3445 38.6307C68.7876 39.0852 69.3729 39.4489 70.1001 39.7216C70.8388 40.0057 71.7365 40.1477 72.7933 40.1477C74.3729 40.1477 75.674 39.7614 76.6967 38.9886C77.7308 38.2273 78.2479 36.9489 78.2479 35.1534V30.3636H77.9411C77.6229 31.0909 77.1456 31.7784 76.5092 32.4261C75.8729 33.0739 75.0547 33.6023 74.0547 34.0114C73.0547 34.4205 71.8615 34.625 70.4751 34.625C68.5092 34.625 66.7195 34.1705 65.1058 33.2614C63.5036 32.3409 62.2251 30.9375 61.2706 29.0511C60.3274 27.1534 59.8558 24.7557 59.8558 21.858C59.8558 18.892 60.3388 16.4148 61.3047 14.4261C62.2706 12.4375 63.5547 10.9489 65.157 9.96023C66.7706 8.97159 68.5376 8.47727 70.4581 8.47727C71.924 8.47727 73.1513 8.72727 74.1399 9.22727C75.1286 9.71591 75.924 10.3295 76.5263 11.0682C77.1399 11.7955 77.6115 12.5114 77.9411 13.2159H78.2138V8.81818H85.424V35.2557C85.424 37.483 84.8786 39.3466 83.7876 40.8466C82.6967 42.3466 81.1854 43.4716 79.2536 44.2216C77.3331 44.983 75.1229 45.3636 72.6229 45.3636ZM72.7763 29.1705C73.9467 29.1705 74.9354 28.8807 75.7422 28.3011C76.5604 27.7102 77.1854 26.8693 77.6172 25.7784C78.0604 24.6761 78.282 23.358 78.282 21.8239C78.282 20.2898 78.0661 18.9602 77.6342 17.8352C77.2024 16.6989 76.5774 15.8182 75.7592 15.1932C74.9411 14.5682 73.9467 14.2557 72.7763 14.2557C71.5831 14.2557 70.5774 14.5795 69.7592 15.2273C68.9411 15.8636 68.3217 16.75 67.9013 17.8864C67.4808 19.0227 67.2706 20.3352 67.2706 21.8239C67.2706 23.3352 67.4808 24.642 67.9013 25.7443C68.3331 26.8352 68.9524 27.6818 69.7592 28.2841C70.5774 28.875 71.5831 29.1705 72.7763 29.1705ZM103.032 35.5114C100.384 35.5114 98.0945 34.9489 96.1626 33.8239C94.2422 32.6875 92.7592 31.108 91.7138 29.0852C90.6683 27.0511 90.1456 24.6932 90.1456 22.0114C90.1456 19.3068 90.6683 16.9432 91.7138 14.9205C92.7592 12.8864 94.2422 11.3068 96.1626 10.1818C98.0945 9.04545 100.384 8.47727 103.032 8.47727C105.68 8.47727 107.964 9.04545 109.884 10.1818C111.816 11.3068 113.305 12.8864 114.35 14.9205C115.396 16.9432 115.918 19.3068 115.918 22.0114C115.918 24.6932 115.396 27.0511 114.35 29.0852C113.305 31.108 111.816 32.6875 109.884 33.8239C107.964 34.9489 105.68 35.5114 103.032 35.5114ZM103.066 29.8864C104.271 29.8864 105.276 29.5455 106.083 28.8636C106.89 28.1705 107.498 27.2273 107.907 26.0341C108.327 24.8409 108.538 23.483 108.538 21.9602C108.538 20.4375 108.327 19.0795 107.907 17.8864C107.498 16.6932 106.89 15.75 106.083 15.0568C105.276 14.3636 104.271 14.017 103.066 14.017C101.85 14.017 100.827 14.3636 99.9979 15.0568C99.1797 15.75 98.5604 16.6932 98.1399 17.8864C97.7308 19.0795 97.5263 20.4375 97.5263 21.9602C97.5263 23.483 97.7308 24.8409 98.1399 26.0341C98.5604 27.2273 99.1797 28.1705 99.9979 28.8636C100.827 29.5455 101.85 29.8864 103.066 29.8864Z"
      fill="black" />
  </g>
  <defs>
    <filter id="filter0_d_5_550" x="0.29187" y="0.0908813" width="119.626" height="53.2728"
      filterUnits="userSpaceOnUse" color-interpolation-filters="sRGB">
      <feFlood flood-opacity="0" result="BackgroundImageFix" />
      <feColorMatrix in="SourceAlpha" type="matrix"
        values="0 0 0 0 0 0 0 0 0 0 0 0 0 0 0 0 0 0 127 0" result="hardAlpha" />
      <feOffset dy="4" />
      <feGaussianBlur stdDeviation="2" />
      <feComposite in2="hardAlpha" operator="out" />
      <feColorMatrix type="matrix" values="0 0 0 0 0 0 0 0 0 0 0 0 0 0 0 0 0 0 0.25 0" />
      <feBlend mode="normal" in2="BackgroundImageFix" result="effect1_dropShadow_5_550" />
      <feBlend mode="normal" in="SourceGraphic" in2="effect1_dropShadow_5_550" result="shape" />
    </filter>
  </defs>
</svg>