<svg width="100%" height="100%" viewBox="0 0 30 30" fill="none" xmlns="http://www.w3.org/2000/svg">
  <circle cx="15" cy="15" r="15" transform="matrix(-1 0 0 1 30 0)" fill="#060606" />
  <path fill-rule="evenodd" clip-rule="evenodd"
    d="M11.6486 8.22944C11.3297 7.88586 10.7991 7.93472 10.5349 8.33199L9.65439 9.65576C9.22495 10.3014 8.9978 11.0733 9.00002 11.8509C9.00181 12.4795 9.15349 13.1119 9.46935 13.6844C11.4705 17.312 13.3777 19.3252 16.7129 21.484C17.9033 22.2545 19.3798 22.1381 20.4722 21.2947L21.6919 20.353C22.0606 20.0683 22.1059 19.4966 21.787 19.1531L19.7119 16.9171C19.4748 16.6617 19.1058 16.6141 18.8171 16.8017C17.8571 17.6364 16.4081 17.559 15.5425 16.6269L14.0177 14.9847C13.1039 14.0007 13.0253 12.5038 13.831 11.4295C14.0051 11.1184 13.9609 10.7208 13.7239 10.4654L11.6486 8.22944Z"
    fill="#FEFEFE" />
</svg>