<svg width="100%" height="100%" viewBox="0 0 24 24" fill="none" xmlns="http://www.w3.org/2000/svg">
  <path
    d="M16.0594 6.00671C16.0594 5.73971 16.1637 5.48365 16.3494 5.29486C16.5351 5.10606 16.7869 5 17.0495 5C17.6802 5 18.299 5.12886 18.902 5.3745C19.5584 5.64128 20.0634 6.03691 20.5218 6.50201C20.9802 6.96913 21.3693 7.48255 21.6317 8.15C21.8733 8.76309 22 9.39228 22 10.0336C22 10.6748 21.8733 11.304 21.6317 11.9171C21.3733 12.5765 20.9901 13.0849 20.5386 13.547L19.5644 14.6372C19.5537 14.6489 19.5428 14.6603 19.5317 14.6715L16.3634 17.893C15.905 18.3591 15.4 18.7547 14.7436 19.0225C14.1553 19.2664 13.5264 19.3932 12.8911 19.396C12.2557 19.3929 11.6268 19.2657 11.0386 19.0215C10.3822 18.7547 9.87723 18.3591 9.41881 17.894C8.9604 17.4268 8.57129 16.9134 8.30891 16.246C8.0593 15.6155 7.93415 14.9413 7.94059 14.2617C7.94059 13.6205 8.06733 12.9913 8.30891 12.3782C8.57129 11.7107 8.9604 11.1973 9.41782 10.7312L10.5069 9.62383C10.5989 9.53029 10.708 9.45608 10.8281 9.40544C10.9483 9.35479 11.077 9.3287 11.2071 9.32866C11.3371 9.32861 11.4659 9.35461 11.5861 9.40517C11.7062 9.45573 11.8154 9.52985 11.9074 9.62332C11.9994 9.71679 12.0724 9.82776 12.1222 9.94991C12.172 10.0721 12.1977 10.203 12.1977 10.3352C12.1978 10.4674 12.1722 10.5984 12.1225 10.7206C12.0728 10.8428 11.9998 10.9538 11.9079 11.0473L10.8188 12.1547C10.4851 12.494 10.2802 12.7859 10.1475 13.1252C10.0008 13.4857 9.9238 13.8716 9.92079 14.2617C9.92079 14.7409 9.99703 15.1175 10.1475 15.499C10.2802 15.8383 10.4851 16.1302 10.8188 16.4695C11.1525 16.8087 11.4396 17.0171 11.7733 17.152C12.1604 17.3101 12.5317 17.3826 12.8911 17.3826C13.2505 17.3826 13.6218 17.3101 14.0089 17.152C14.3426 17.0171 14.6297 16.8087 14.9634 16.4695L18.1148 13.2651L19.0891 12.1748C19.0997 12.1632 19.1106 12.1517 19.1218 12.1406C19.4554 11.8013 19.6604 11.5094 19.7931 11.1701C19.9485 10.7765 20.0198 10.399 20.0198 10.0336C20.0198 9.66812 19.9485 9.2906 19.7931 8.89698C19.6604 8.55772 19.4554 8.26577 19.1218 7.92651C18.7881 7.58725 18.501 7.37886 18.1673 7.24295C17.8127 7.09409 17.4332 7.01616 17.0495 7.01342C16.7869 7.01342 16.5351 6.90736 16.3494 6.71856C16.1637 6.52977 16.0594 6.27371 16.0594 6.00671ZM11.2079 7.51678C10.8485 7.51678 10.4772 7.58926 10.0901 7.74631C9.75643 7.88222 9.46931 8.0906 9.13564 8.43087L5.88515 11.7349L4.91089 12.8252L4.87822 12.8594C4.54455 13.1987 4.3396 13.4906 4.20594 13.8299C4.05954 14.1904 3.98289 14.5764 3.9802 14.9664C3.9802 15.3319 4.05149 15.7094 4.20594 16.103C4.3396 16.4423 4.54455 16.7342 4.87921 17.0735C5.21188 17.4128 5.49901 17.6211 5.83267 17.757C6.2198 17.9141 6.59109 17.9866 6.95049 17.9866C7.21309 17.9866 7.46492 18.0926 7.6506 18.2814C7.83628 18.4702 7.94059 18.7263 7.94059 18.9933C7.94059 19.2603 7.83628 19.5163 7.6506 19.7051C7.46492 19.8939 7.21309 20 6.95049 20C6.31518 19.9972 5.6863 19.8705 5.09802 19.6265C4.44158 19.3587 3.93663 18.9631 3.47822 18.497C3.0198 18.0309 2.63069 17.5175 2.36832 16.85C2.12808 16.2519 2.00304 15.6125 2 14.9664C2 14.3252 2.12673 13.696 2.36832 13.0829C2.62673 12.4235 3.0099 11.9151 3.46139 11.453L4.43564 10.3628L4.46832 10.3285L7.73564 7.00638C8.19406 6.54027 8.69901 6.14463 9.35544 5.87785C9.94366 5.63359 10.5725 5.50645 11.2079 5.50336C11.8386 5.50336 12.4574 5.63222 13.0604 5.87785C13.7168 6.14463 14.2218 6.54027 14.6802 7.00537C15.1386 7.47248 15.5277 7.98591 15.7901 8.65336C16.0317 9.26644 16.1584 9.89564 16.1584 10.5369C16.1584 11.1782 16.0317 11.8074 15.7901 12.4205C15.5307 13.0799 15.1475 13.5903 14.696 14.0513L13.6208 15.2443C13.4433 15.4411 13.1962 15.5581 12.9338 15.5696C12.6714 15.5811 12.4153 15.4862 12.2218 15.3057C12.0283 15.1252 11.9132 14.874 11.9018 14.6072C11.8905 14.3404 11.9839 14.08 12.1614 13.8832L13.2505 12.6752L13.2802 12.644C13.6139 12.3047 13.8188 12.0128 13.9515 11.6735C14.1069 11.2799 14.1782 10.9023 14.1782 10.5369C14.1782 10.1715 14.1069 9.79396 13.9515 9.40034C13.8188 9.06107 13.6139 8.76913 13.2802 8.42987C12.9465 8.0906 12.6594 7.88222 12.3257 7.74631C11.9711 7.59745 11.5916 7.51951 11.2079 7.51678Z"
    fill="#060606" />
</svg>