<svg width="100%" height="100%" viewBox="0 0 30 30" fill="none" xmlns="http://www.w3.org/2000/svg">
  <circle cx="15" cy="15" r="15" fill="#060606" />
  <path
    d="M19.9058 12.9147C19.6136 12.9147 19.2267 12.9077 18.7449 12.9077C17.5699 12.9077 16.6038 11.8556 16.6038 10.5725V8.3213C16.6038 8.1442 16.4725 8 16.3104 8H12.8887C11.2916 8 10 9.4182 10 11.1563V18.6988C10 20.5223 11.3531 22 13.022 22H18.1177C19.7097 22 21 20.5909 21 18.8514V13.2297C21 13.0519 20.8693 12.9084 20.7066 12.9091C20.433 12.9112 20.105 12.9147 19.9058 12.9147Z"
    fill="#FEFEFE" />
  <path
    d="M17.6592 8.11467C17.4191 7.8728 17 8.03923 17 8.37444V10.4253C17 11.2855 17.7307 11.9932 18.6187 11.9932C19.1792 11.9994 19.9564 12.001 20.6165 11.9994C20.9545 11.9987 21.1263 11.6075 20.8919 11.371C20.0448 10.5179 18.528 8.98884 17.6592 8.11467Z"
    fill="#FEFEFE" />
  <path
    d="M17.8481 15.9357C17.6457 15.7222 17.32 15.7207 17.1176 15.9372L16.0164 17.1172V13.5505C16.0164 13.2468 15.7849 13 15.5 13C15.2152 13 14.9837 13.2468 14.9837 13.5505V17.1172L13.8818 15.9372C13.6801 15.7207 13.3537 15.7222 13.152 15.9357C12.9497 16.15 12.9497 16.498 13.15 16.7138L15.1341 18.8389H15.1348C15.1819 18.8892 15.2381 18.9298 15.3011 18.9579C15.3635 18.9852 15.4314 19 15.5 19C15.5693 19 15.6373 18.9852 15.6996 18.9571C15.7613 18.9298 15.8175 18.8892 15.8646 18.8397L15.866 18.8389L17.8494 16.7138C18.0504 16.498 18.0504 16.15 17.8481 15.9357Z"
    fill="#060606" />
</svg>