<svg width="100%" height="100%" viewBox="0 0 24 24" fill="none" xmlns="http://www.w3.org/2000/svg">
  <path
    d="M12 4C10.9391 4 9.92172 4.42143 9.17157 5.17157C8.42143 5.92172 8 6.93913 8 8C8 9.06087 8.42143 10.0783 9.17157 10.8284C9.92172 11.5786 10.9391 12 12 12C13.0609 12 14.0783 11.5786 14.8284 10.8284C15.5786 10.0783 16 9.06087 16 8C16 6.93913 15.5786 5.92172 14.8284 5.17157C14.0783 4.42143 13.0609 4 12 4ZM6 8C6 6.4087 6.63214 4.88258 7.75736 3.75736C8.88258 2.63214 10.4087 2 12 2C13.5913 2 15.1174 2.63214 16.2426 3.75736C17.3679 4.88258 18 6.4087 18 8C18 9.5913 17.3679 11.1174 16.2426 12.2426C15.1174 13.3679 13.5913 14 12 14C10.4087 14 8.88258 13.3679 7.75736 12.2426C6.63214 11.1174 6 9.5913 6 8ZM8 18C7.20435 18 6.44129 18.3161 5.87868 18.8787C5.31607 19.4413 5 20.2044 5 21C5 21.2652 4.89464 21.5196 4.70711 21.7071C4.51957 21.8946 4.26522 22 4 22C3.73478 22 3.48043 21.8946 3.29289 21.7071C3.10536 21.5196 3 21.2652 3 21C3 19.6739 3.52678 18.4021 4.46447 17.4645C5.40215 16.5268 6.67392 16 8 16H16C17.3261 16 18.5979 16.5268 19.5355 17.4645C20.4732 18.4021 21 19.6739 21 21C21 21.2652 20.8946 21.5196 20.7071 21.7071C20.5196 21.8946 20.2652 22 20 22C19.7348 22 19.4804 21.8946 19.2929 21.7071C19.1054 21.5196 19 21.2652 19 21C19 20.2044 18.6839 19.4413 18.1213 18.8787C17.5587 18.3161 16.7956 18 16 18H8Z"
    fill="#060606" />
</svg>