<svg width="100%" height="100%" viewBox="0 0 24 24" fill="none" xmlns="http://www.w3.org/2000/svg">
<g clip-path="url(#clip0_5_426)">
<path d="M12 24C18.6274 24 24 18.6274 24 12C24 5.37258 18.6274 0 12 0C5.37258 0 0 5.37258 0 12C0 18.6274 5.37258 24 12 24Z" fill="#060606"/>
<path d="M15.3727 15.3727H13.7428V12.82C13.7428 12.2113 13.7319 11.4277 12.8951 11.4277C12.0462 11.4277 11.9163 12.0909 11.9163 12.7756V15.3724H10.2864V10.1231H11.8511V10.8405H11.873C12.1916 10.2957 12.7862 9.96915 13.4168 9.99257C15.0688 9.99257 15.3734 11.0792 15.3734 12.493L15.3727 15.3727ZM8.44741 9.40553C7.92848 9.40553 7.50132 8.9786 7.50132 8.45967C7.50132 7.94075 7.9283 7.51376 8.44718 7.51376C8.96601 7.51376 9.39295 7.94065 9.39304 8.45949C9.39304 8.97832 8.96615 9.40549 8.44741 9.40553ZM9.26233 15.3727H7.63075V10.1231H9.26233V15.3727ZM16.1852 6.00007H6.81166C6.37166 5.99507 6.00536 6.3529 6 6.79294V16.2061C6.00518 16.6464 6.37143 17.0047 6.81166 16.9999H16.1852C16.6266 17.0055 16.9941 16.6473 17 16.2061V6.7923C16.9941 6.35134 16.626 5.99425 16.1852 6.00007Z" fill="#FEFEFE"/>
</g>
<defs>
<clipPath id="clip0_5_426">
<rect width="100%" height="100%" fill="white"/>
</clipPath>
</defs>
</svg>
