<svg width="100%" height="100%" viewBox="0 0 24 24" fill="none" xmlns="http://www.w3.org/2000/svg">
<g clip-path="url(#clip0_5_417)">
<path d="M12 24C18.6274 24 24 18.6274 24 12C24 5.37258 18.6274 0 12 0C5.37258 0 0 5.37258 0 12C0 18.6274 5.37258 24 12 24Z" fill="#060606"/>
<path fill-rule="evenodd" clip-rule="evenodd" d="M11.9476 7.89245C12.6219 8.12881 12.974 8.86215 12.7413 9.52884C12.5026 10.1955 11.7626 10.547 11.0883 10.3167C10.414 10.0803 10.0619 9.34699 10.2946 8.68035C10.5333 8.00761 11.2733 7.6561 11.9476 7.89245ZM13.4395 12.4925C13.6304 12.3773 13.8393 12.2682 14.0601 12.2561C14.2928 12.244 14.5912 12.3712 14.7464 12.5349C15.0746 12.8864 15.0985 13.4743 14.7344 13.8076C14.6807 13.8621 14.6091 13.9167 14.5375 13.9591C13.893 14.3349 13.523 14.5167 12.7831 14.6803C12.8785 14.7591 12.98 14.8561 13.0635 14.9349C13.5648 15.4258 14.072 15.9106 14.5673 16.4016C14.8956 16.7228 14.9075 17.1894 14.6688 17.5652C14.4122 17.9652 13.887 18.0682 13.4753 17.8379C13.3679 17.7773 13.2664 17.6924 13.153 17.5834C12.6219 17.0561 12.0849 16.5349 11.5418 16.0197C11.4702 16.0864 11.3509 16.2137 11.2613 16.3046C10.7899 16.7773 10.3304 17.2561 9.853 17.7228C9.46511 18.1167 8.88033 18.0803 8.50434 17.6804C8.22387 17.3834 8.18808 16.9046 8.43872 16.5712C8.58194 16.3955 8.74303 16.2379 8.90417 16.0803C9.26817 15.7046 9.88286 15.1228 10.217 14.7409C9.6143 14.547 8.88033 14.3167 8.37904 13.9531C7.94938 13.6379 7.88969 13.1046 8.17613 12.6803C8.28356 12.5167 8.43872 12.4015 8.68339 12.3409C8.95789 12.2743 9.22641 12.3349 9.47108 12.4682C10.1932 12.8743 10.8197 13.0803 11.7686 13.0137C12.3534 12.9409 12.9322 12.7894 13.4395 12.4925ZM12.5563 6.17728C10.9272 5.60761 9.14287 6.4561 8.56999 8.07425C7.99712 9.69245 8.85046 11.4621 10.4796 12.0258C12.1087 12.5955 13.893 11.747 14.4659 10.1288C15.0388 8.51668 14.1854 6.74701 12.5563 6.17728Z" fill="#FEFEFE"/>
</g>
<defs>
<clipPath id="clip0_5_417">
<rect width="100%" height="100%" fill="white"/>
</clipPath>
</defs>
</svg>
