<svg width="100%" height="100%" viewBox="0 0 24 24" fill="none" xmlns="http://www.w3.org/2000/svg">
<g clip-path="url(#clip0_5_388)">
<path d="M12 24C18.6274 24 24 18.6274 24 12C24 5.37258 18.6274 0 12 0C5.37258 0 0 5.37258 0 12C0 18.6274 5.37258 24 12 24Z" fill="#060606"/>
<path d="M15.9774 8.07947C15.9774 8.07947 17.0873 7.68987 16.9945 8.63591C16.9639 9.02547 16.6865 10.3891 16.4705 11.8638L15.7305 16.2326C15.7305 16.2326 15.6688 16.8727 15.1137 16.984C14.5588 17.0951 13.7263 16.5944 13.572 16.4831C13.4486 16.3995 11.2594 15.1473 10.4886 14.5353C10.2726 14.3681 10.0257 14.0343 10.5195 13.6448L13.7568 10.862C14.1268 10.5282 14.4968 9.74907 12.9551 10.6951L8.63804 13.3385C8.63804 13.3385 8.14461 13.617 7.21977 13.3665L5.21522 12.8098C5.21522 12.8098 4.47523 12.3925 5.73952 11.9751C8.82316 10.6673 12.616 9.33175 15.9768 8.07947H15.9774Z" fill="#FEFEFE"/>
</g>
<defs>
<clipPath id="clip0_5_388">
<rect width="100%" height="100%" fill="white"/>
</clipPath>
</defs>
</svg>
