<svg width="100%" height="100%" viewBox="0 0 24 24" fill="none" xmlns="http://www.w3.org/2000/svg">
<g clip-path="url(#clip0_5_394)">
<path d="M12 24C18.6274 24 24 18.6274 24 12C24 5.37258 18.6274 0 12 0C5.37258 0 0 5.37258 0 12C0 18.6274 5.37258 24 12 24Z" fill="#060606"/>
<path d="M15.514 6.28482C13.5175 5.90506 11.4441 5.90506 9.44764 6.28482C8.56457 6.47469 7.45113 7.53803 7.25916 8.37355C6.91361 10.0065 6.91361 11.6775 7.25916 13.3105C7.48954 14.146 8.60298 15.2093 9.44764 15.3992C9.48604 15.3992 9.52445 15.4372 9.52445 15.4752V17.8677C9.52445 17.9816 9.67802 18.0576 9.75478 17.9437L10.9066 16.7664C10.9066 16.7664 11.8281 15.817 11.9817 15.665C11.9817 15.665 12.0201 15.6271 12.0585 15.6271C13.2103 15.665 14.4005 15.5511 15.5524 15.3612C16.4354 15.1714 17.5489 14.108 17.7408 13.2725C18.0864 11.6395 18.0864 9.96854 17.7408 8.33557C17.5105 7.53803 16.397 6.47469 15.514 6.28482ZM15.5524 13.4244C15.3604 13.8042 15.13 14.108 14.7461 14.2979C14.6309 14.3358 14.5157 14.3738 14.4005 14.4118C14.2469 14.3738 14.1318 14.3358 14.0166 14.2979C12.788 13.8042 11.6361 13.1206 10.7146 12.1332C10.2155 11.5636 9.79318 10.918 9.44764 10.2344C9.29407 9.89262 9.1405 9.58879 9.02528 9.24702C8.91012 8.94319 9.10209 8.63935 9.29407 8.41149C9.48604 8.18368 9.71642 8.03174 9.98516 7.91783C10.1771 7.80388 10.3691 7.87985 10.5227 8.03174C10.8299 8.41149 11.137 8.79129 11.3674 9.20903C11.5209 9.47488 11.4825 9.77866 11.2138 9.96854C11.137 10.0065 11.0986 10.0445 11.0218 10.1205C10.9834 10.1584 10.9066 10.1964 10.8682 10.2724C10.7915 10.3863 10.7915 10.5002 10.8299 10.6141C11.137 11.4876 11.7129 12.1712 12.596 12.551C12.7496 12.6269 12.8648 12.6649 13.0567 12.6649C13.3255 12.6269 13.4406 12.3231 13.6326 12.1712C13.8246 12.0193 14.055 12.0193 14.2854 12.1332C14.4773 12.2472 14.6693 12.399 14.8997 12.551C15.0916 12.7029 15.2836 12.8168 15.4756 12.9687C15.5908 13.0446 15.6292 13.2345 15.5524 13.4244ZM13.9398 10.5762C13.863 10.5762 13.9014 10.5762 13.9398 10.5762C13.7862 10.5762 13.7478 10.5002 13.7094 10.3863C13.7094 10.3104 13.7094 10.1964 13.671 10.1205C13.6326 9.96854 13.5559 9.81665 13.4023 9.70274C13.3255 9.66476 13.2487 9.62677 13.1719 9.58879C13.0567 9.5508 12.9799 9.5508 12.8648 9.5508C12.7496 9.51282 12.7112 9.43689 12.7112 9.32294C12.7112 9.24702 12.8264 9.17105 12.9031 9.17105C13.5175 9.20903 13.9782 9.5508 14.055 10.2724C14.055 10.3104 14.055 10.3863 14.055 10.4243C14.055 10.5002 14.0166 10.5762 13.9398 10.5762ZM13.5559 8.9052C13.3639 8.82928 13.1719 8.75331 12.9415 8.71532C12.8648 8.71532 12.7496 8.67734 12.6728 8.67734C12.5576 8.67734 12.4808 8.60142 12.5192 8.48746C12.5192 8.37355 12.596 8.29759 12.7112 8.33557C13.0951 8.37355 13.4406 8.44948 13.7862 8.60142C14.4773 8.94319 14.8613 9.51282 14.9764 10.2724C14.9764 10.3104 14.9764 10.3483 14.9764 10.3863C14.9764 10.4622 14.9764 10.5382 14.9764 10.6521C14.9764 10.6901 14.9764 10.7281 14.9764 10.7661C14.938 10.918 14.6693 10.956 14.6309 10.7661C14.6309 10.7281 14.5925 10.6521 14.5925 10.6141C14.5925 10.2724 14.5157 9.9306 14.3621 9.62677C14.1318 9.28496 13.863 9.05714 13.5559 8.9052ZM15.6292 11.1838C15.514 11.1838 15.4372 11.0699 15.4372 10.956C15.4372 10.7281 15.3988 10.5002 15.3604 10.2724C15.2068 9.05714 14.2085 8.06972 13.0183 7.87985C12.8264 7.84186 12.6344 7.84186 12.4808 7.80388C12.3656 7.80388 12.212 7.80388 12.1736 7.65199C12.1352 7.53803 12.2504 7.42412 12.3656 7.42412C12.404 7.42412 12.4424 7.42412 12.4424 7.42412C12.5192 7.42412 14.0166 7.46211 12.4424 7.42412C14.055 7.46211 15.3988 8.52545 15.6675 10.1205C15.7059 10.3863 15.7443 10.6521 15.7443 10.956C15.8211 11.0699 15.7443 11.1838 15.6292 11.1838Z" fill="#FEFEFE"/>
</g>
<defs>
<clipPath id="clip0_5_394">
<rect width="100%" height="100%" fill="white"/>
</clipPath>
</defs>
</svg>
